<?xml version="1.0" encoding="utf-8"?>
<svg id="master-artboard" viewBox="0 0 992.3383178710938 388.13037109375" version="1.1" xmlns="http://www.w3.org/2000/svg" x="0px" y="0px" style="enable-background:new 0 0 1400 980;" width="992.3383178710938px" height="388.13037109375px"><rect id="ee-background" x="0" y="0" width="992.3383178710938" height="388.13037109375" style="fill: white; fill-opacity: 0; pointer-events: none;"/><g transform="matrix(1.6462838649749756, 0, 0, 1.6462838649749756, -202.66689682006836, -294.9460015296936)"><g>
	<path fill-rule="evenodd" clip-rule="evenodd" fill="#EC008C" d="M193.654,187.654c38.774-8.364,77.09,10.16,74.092,45.572&#10;&#9;&#9;c10.983-9.396,29.863-21.006,53.395-23.001c24.948-2.118,46.221,12.655,48.692,31.558c7.354,56.236-95.514,139.441-135.312,164.875&#10;&#9;&#9;l47.827-44.444l-33.476,19.582l-5.647-1.093c33.331-20.92,79.906-57.444,100.529-91.491c20.279-33.481,8.193-66.493-27.646-61.703&#10;&#9;&#9;c-19.696,2.633-35.272,9.502-54.514,23.452c0,0-7.593,7.435-5.936-1.014c6.957-35.459-28.928-52.361-58.72-51.03&#10;&#9;&#9;c-57.144,2.555-71.453,57.288-57.505,102.371c0.417,1.355,1.654,4.302,2.125,5.64c0,0-29.206-50.334,3.087-92.121&#10;&#9;&#9;c20.572-26.62,61.646-31.451,91.367-18.14c11.671,5.229,15.836,10.038,21.674,18.5C252.337,197.179,222.5,183.965,193.654,187.654"/>
	<path fill-rule="evenodd" clip-rule="evenodd" fill="#0076AA" d="M238.183,214.034c0,0-27.039-16.173-58.316,1.667&#10;&#9;&#9;c-28.519,16.266-29.983,61.637-11.294,86.729c-23.805-18.634-27.099-70.1,0.748-89.079&#10;&#9;&#9;C194.324,196.306,226.093,202.904,238.183,214.034"/>
	<path fill-rule="evenodd" clip-rule="evenodd" fill="#0076AA" d="M181.023,314.987c0,0-9.066-1.99-11.166-5.396&#10;&#9;&#9;c-2.097-3.399-0.776-7.385,2.481-8.47c3.257-1.087,13.215-1.885,12.596,0.546c-0.621,2.43,3.229,13.58,3.111,16.362&#10;&#9;&#9;c0,0-4.777-10.616-5.286-11.776c-0.506-1.157,0.827-2.586-2.46-2.632C168.698,303.456,172.625,311.338,181.023,314.987"/>
	<path fill-rule="evenodd" clip-rule="evenodd" fill="#0076AA" d="M144.09,329.516c0,0-3.023-7.345,4.524-9.59&#10;&#9;&#9;c1.524-0.577,6.82-2.615,8.882-3.851c4.56-2.718-1.481-7.681-3.523-6.935c-3.482,1.268-18.05,2.643-17.978,6.896&#10;&#9;&#9;c0.039,2.027,7.025,7.025,7.025,7.025s-8.387-4.203-9.511-6.88c-1.12-2.681,2.524-5.006,7.953-6.709&#10;&#9;&#9;c1.986-0.62,12.704-4.098,14.832-3.576c7.797,5.907,5.638,10.161,0.539,12.396c3.188-0.373,6.013-0.467,10.457-1.272&#10;&#9;&#9;c7.561-1.372,8.198,1.439,9.103,4.119c0.905,2.681-0.759,5.827-2.967,6.442c-2.206,0.615-2.388,0.978-2.388,0.978&#10;&#9;&#9;s1.409,0.296,6.478-0.723c10.832-2.181,10.003,6.145,7.131,8.902c0,0-2.39,1.051-2.934,1.233c0,0,2.645,3.037-0.107,5.064&#10;&#9;&#9;c-2.75,2.024-15.213,7.761-15.213,7.761s-0.724,3.112-2.425,4.2l1.027-4.071c0,0-1.594,1.123-2.897,1.375c0,0,2.858-2.1,3.33-2.895&#10;&#9;&#9;c0.472-0.795,11.981-5.248,12.995-6.263c1.012-1.013,2.859-2.17,1.414-3.69c-1.45-1.52-11.005,0.471-11.005,0.471&#10;&#9;&#9;s-8.869,1.447-9.086,1.592c-0.218,0.146-2.859,1.192-3.401,2.28c0,0-0.444-4.036,4.299-5.121&#10;&#9;&#9;c4.741-1.085,11.265-0.779,14.738-1.396c3.475-0.612,6.987-0.43,8.145-2.063c1.159-1.627,0.579-4.358-0.201-4.92&#10;&#9;&#9;c-0.775-0.563-1.21-1.141-5.1-0.725c-3.893,0.416-7.772,1.262-10.667,1.334c-2.895,0.073-9.158,0.398-9.738,0.89&#10;&#9;&#9;c-1.956,1.662-3.583,3.142-6.042,3.824l4.021-5.001l-3.804-0.134c0,0,2.899-1.265,6.754-1.608c3.854-0.347,6.973-1.257,9.661-1.588&#10;&#9;&#9;c2.686-0.327,6.428-1.409,6.643-2.965c0.22-1.557-0.318-5.881-6.287-5.005c-5.971,0.875-9.674,0.075-16.515,1.162&#10;&#9;&#9;C145.41,321.566,145.271,326.804,144.09,329.516"/>
	<path fill-rule="evenodd" clip-rule="evenodd" fill="#0076AA" d="M144.301,331.893c0,0,4.588,1.987,4.444,3.869&#10;&#9;&#9;c-0.145,1.883-0.572,4.498-0.063,6.236c0.503,1.737,3.468,2.258,2.959,5.733c-0.506,3.475,0.5,5.907,2.67,6.705&#10;&#9;&#9;c2.171,0.798,8.051-0.408,11.086,3.112c3.033,3.523,7.718,0.408,9.674,0.626c1.954,0.218,3.347,2.629,3.347,2.629&#10;&#9;&#9;s-1.866-1.13-4.69-0.841c-2.821,0.291-8.29,1.528-10.15-0.749c-3.398-4.159-8.255-1.45-11.222-2.825&#10;&#9;&#9;c-2.966-1.375-3.58-6.007-3.365-7.672c0.215-1.662,0.144-3.15-0.688-3.907c-0.833-0.76-2.177-1.402-1.668-4.187&#10;&#9;&#9;C147.142,337.835,147.484,335.438,144.301,331.893"/>
	<path fill-rule="evenodd" clip-rule="evenodd" fill="#EC008C" d="M173.604,348.534c0,0-0.763,3.271,2.712,7.323&#10;&#9;&#9;c3.475,4.055,4.086,3.359,3.729,5.964c-0.619,4.456-5.941,17.056,2.25,16.379c3.002-0.25,1.007,2.839,3.549,5.35&#10;&#9;&#9;c2.323,2.293,5.005,0.649,7.139,1.536c1.872,0.778-2.374,6.031,1.654,6.958c2.856,0.658,6.405-1.574,5.47,2.693&#10;&#9;&#9;c-0.905,4.125,0.806,8.054,6.419,8.502c2.123,0.167,7.212-0.677,8.364-2.658c0.45-0.773-2.127-1.421-1.396-2.726&#10;&#9;&#9;c0.225-0.397,0.109-0.191,0.331-0.645c3.135-6.378,0.628-15.096,2.663-21.916c1.865-6.263,7.039-13.256,15.674-8.395&#10;&#9;&#9;c1.15-5.814,0.266-10.503-5.52-12.327c-3.563-1.125-5.829-2.975-7.889-4.438c-1.434-1.018-3.02-1.636-4.274-2.452&#10;&#9;&#9;c-12.953-8.422-18.162-22.364-28.921-29.454c0.114,1.12,9.383,15.044,15.425,23.138c6.672,8.943,8.896,6.924,17.227,12.734&#10;&#9;&#9;c1.411,1.192,6.471,2.138,7.737,2.75c3.198,1.553,2.73,3.932,1.946,6.269c-3.027-1.069-6.349-0.962-9.304,0.359&#10;&#9;&#9;c-4.725,2.116-5.609,11.183-5.677,15.759c-0.07,4.739-0.31,8.937-0.75,11.961c-0.289,1.987-0.75,4.286-1.555,5.824&#10;&#9;&#9;c-0.099,0.196-0.378,0.43-0.421,1.028c-0.031,0.451,0.333,0.895,0.577,1.177c0.329,0.376,1.17,0.553,0.644,0.843&#10;&#9;&#9;c-1.841,1.021-5.62,0.812-7.063,0.027c-1.591-0.87-1.208-2.833-0.267-8.985c0.56-3.556-3.201-2.71-6.978-2.863&#10;&#9;&#9;c-1.881-0.075-0.249-3.313-1.405-5.483c-1.159-2.173-3.151-0.617-5.911-0.591c-2.762,0.024-2.085-2.524-2.856-4.731&#10;&#9;&#9;c-1.457-4.179-6.851,2.191-5.921-7.125c0.738-7.401,2.914-11.034,0.46-13.296C180.235,355.884,176.795,354.845,173.604,348.534"/>
	<path fill-rule="evenodd" clip-rule="evenodd" fill="#EC008C" d="M224.299,369.757c0.727,1.074,10.158,8.594,21.274,13.572&#10;&#9;&#9;l3.299-1.533c-5.858-3.499-12.896-9.53-17.568-13.307c-1.404-1.136-2.456-1.584-3.949-1.595&#10;&#9;&#9;C225.625,366.884,223.268,368.232,224.299,369.757"/>
	<path fill-rule="evenodd" clip-rule="evenodd" fill="#0076AA" d="M216.585,392.951l17.936,13.707l0.167,4.641l-19.295-12.286&#10;&#9;&#9;c-1.214-0.798-0.104-1.676,0.788-3.609C216.329,395.081,216.46,393.938,216.585,392.951"/>
	<path fill="#EC008C" d="M253.709,288.087c0-0.283,0.381-0.424,1.139-0.424c0.759,0,1.599,0.089,2.516,0.265&#10;&#9;&#9;c0.917,0.177,1.767,0.417,2.542,0.716c0.777,0.301,1.184,0.592,1.219,0.873l-4.342,63.463c-0.213,0.209-0.575,0.307-1.086,0.29&#10;&#9;&#9;s-1.007-0.089-1.485-0.212c-0.474-0.124-0.873-0.271-1.19-0.451c-0.318-0.175-0.409-0.336-0.267-0.476&#10;&#9;&#9;c0.036-2.471,0.071-5.14,0.107-7.997c0.035-2.438,0.07-5.237,0.106-8.4c0.036-3.158,0.089-6.504,0.157-10.035&#10;&#9;&#9;c-2.788,0.069-5.915,0.421-9.374,1.058c-3.461,0.637-6.906,1.555-10.333,2.756l-0.688,22.99c-0.07,0.177-0.363,0.284-0.873,0.316&#10;&#9;&#9;c-0.513,0.038-1.06,0.026-1.644-0.026c-0.581-0.055-1.112-0.15-1.59-0.29c-0.475-0.14-0.695-0.301-0.661-0.479&#10;&#9;&#9;c-0.035-1.837-0.052-3.849-0.052-6.037c0-1.874-0.008-4.036-0.025-6.49c-0.018-2.455-0.028-5.057-0.028-7.813&#10;&#9;&#9;c-3.425,1.521-6.407,3.23-8.952,5.141c-0.177,0-0.417-0.172-0.716-0.505c-0.299-0.336-0.575-0.769-0.82-1.3&#10;&#9;&#9;c-0.247-0.529-0.424-1.112-0.529-1.746c-0.109-0.637-0.018-1.257,0.265-1.853c1.199-0.956,2.729-1.84,4.582-2.65&#10;&#9;&#9;c1.854-0.814,3.894-1.556,6.117-2.227c0-2.363-0.008-4.713-0.025-7.044s-0.027-4.573-0.027-6.728c0-2.153,0-4.148,0-5.985&#10;&#9;&#9;s0.009-3.435,0.027-4.794c0.018-1.358,0.025-2.428,0.025-3.205s0.018-1.183,0.054-1.218c0.213-0.248,0.673-0.354,1.379-0.318&#10;&#9;&#9;c0.707,0.035,1.448,0.141,2.222,0.318c0.778,0.176,1.457,0.406,2.042,0.688c0.582,0.283,0.853,0.548,0.819,0.795l-0.794,25.955&#10;&#9;&#9;c1.942-0.457,3.876-0.854,5.801-1.192c1.925-0.333,3.751-0.607,5.484-0.821c1.729-0.21,3.316-0.368,4.767-0.473&#10;&#9;&#9;c1.45-0.107,2.646-0.143,3.601-0.107c0.036-2.791,0.079-5.57,0.131-8.344c0.054-2.771,0.1-5.431,0.133-7.974&#10;&#9;&#9;c0.035-2.54,0.07-4.909,0.108-7.096c0.034-2.19,0.061-4.089,0.077-5.696c0.018-1.606,0.035-2.877,0.055-3.813&#10;&#9;&#9;C253.7,288.554,253.709,288.087,253.709,288.087"/>
	<path fill="#0076AA" d="M292.38,266.754c0-0.227,0.303-0.34,0.913-0.34c0.609,0,1.283,0.071,2.021,0.212&#10;&#9;&#9;c0.736,0.141,1.417,0.332,2.04,0.573c0.623,0.24,0.949,0.475,0.978,0.701l-3.487,50.925c-0.168,0.172-0.461,0.249-0.87,0.236&#10;&#9;&#9;c-0.411-0.017-0.809-0.073-1.19-0.172c-0.382-0.097-0.702-0.221-0.957-0.36c-0.255-0.143-0.327-0.269-0.212-0.384&#10;&#9;&#9;c0.028-1.984,0.057-4.122,0.084-6.418c0.03-1.958,0.057-4.203,0.086-6.738c0.028-2.535,0.069-5.222,0.125-8.055&#10;&#9;&#9;c-2.236,0.058-4.745,0.341-7.522,0.85c-2.778,0.51-5.54,1.247-8.289,2.21l-0.553,18.449c-0.058,0.143-0.292,0.226-0.7,0.255&#10;&#9;&#9;c-0.414,0.03-0.851,0.021-1.318-0.019c-0.47-0.043-0.895-0.123-1.276-0.236c-0.382-0.112-0.56-0.241-0.532-0.381&#10;&#9;&#9;c-0.028-1.475-0.042-3.089-0.042-4.848c0-1.501-0.007-3.236-0.021-5.207c-0.015-1.971-0.021-4.061-0.021-6.271&#10;&#9;&#9;c-2.75,1.219-5.143,2.594-7.185,4.122c-0.142,0-0.332-0.134-0.573-0.402c-0.24-0.269-0.46-0.618-0.659-1.042&#10;&#9;&#9;c-0.197-0.425-0.34-0.892-0.426-1.402c-0.084-0.51-0.013-1.004,0.215-1.487c0.961-0.766,2.189-1.475,3.675-2.126&#10;&#9;&#9;c1.488-0.651,3.126-1.247,4.91-1.786c0-1.898-0.008-3.783-0.021-5.653c-0.015-1.871-0.021-3.67-0.021-5.399&#10;&#9;&#9;c0-1.728,0-3.328,0-4.803c0-1.473,0.007-2.757,0.021-3.847c0.014-1.092,0.021-1.948,0.021-2.573c0-0.623,0.014-0.949,0.043-0.978&#10;&#9;&#9;c0.169-0.199,0.54-0.283,1.104-0.255c0.568,0.03,1.163,0.114,1.787,0.255c0.62,0.142,1.168,0.326,1.635,0.553&#10;&#9;&#9;s0.688,0.439,0.659,0.638l-0.638,20.83c1.558-0.369,3.11-0.688,4.655-0.957c1.544-0.269,3.01-0.49,4.397-0.658&#10;&#9;&#9;c1.39-0.17,2.666-0.299,3.826-0.384c1.164-0.084,2.126-0.113,2.891-0.084c0.031-2.239,0.064-4.47,0.107-6.695&#10;&#9;&#9;c0.043-2.225,0.078-4.357,0.106-6.398c0.028-2.04,0.058-3.938,0.085-5.696c0.029-1.756,0.051-3.28,0.064-4.569&#10;&#9;&#9;c0.015-1.289,0.029-2.31,0.043-3.062C292.37,267.128,292.38,266.754,292.38,266.754"/>
	<path fill="#EC008C" d="M325.63,247.019c0-0.195,0.263-0.292,0.788-0.292c0.526,0,1.107,0.061,1.74,0.183&#10;&#9;&#9;c0.634,0.122,1.219,0.287,1.757,0.494c0.539,0.208,0.819,0.41,0.845,0.605l-3.005,43.882c-0.146,0.147-0.397,0.215-0.752,0.201&#10;&#9;&#9;c-0.353-0.012-0.696-0.06-1.024-0.146c-0.331-0.086-0.603-0.189-0.823-0.312c-0.22-0.123-0.282-0.231-0.186-0.329&#10;&#9;&#9;c0.026-1.709,0.05-3.554,0.074-5.532c0.025-1.684,0.049-3.62,0.072-5.806c0.025-2.185,0.061-4.498,0.113-6.942&#10;&#9;&#9;c-1.931,0.049-4.093,0.294-6.484,0.734c-2.396,0.439-4.776,1.074-7.144,1.904l-0.478,15.898c-0.047,0.121-0.25,0.195-0.603,0.22&#10;&#9;&#9;c-0.354,0.024-0.733,0.018-1.139-0.02c-0.4-0.036-0.767-0.104-1.099-0.2c-0.329-0.098-0.482-0.208-0.457-0.33&#10;&#9;&#9;c-0.025-1.271-0.036-2.663-0.036-4.176c0-1.294-0.007-2.79-0.02-4.487c-0.012-1.697-0.016-3.496-0.016-5.403&#10;&#9;&#9;c-2.37,1.051-4.434,2.234-6.191,3.554c-0.121,0-0.289-0.117-0.496-0.348c-0.207-0.232-0.396-0.533-0.568-0.897&#10;&#9;&#9;c-0.169-0.366-0.294-0.771-0.367-1.209c-0.074-0.439-0.011-0.868,0.186-1.282c0.828-0.66,1.886-1.269,3.166-1.832&#10;&#9;&#9;c1.284-0.562,2.692-1.074,4.232-1.538c0-1.637-0.007-3.26-0.019-4.873c-0.013-1.611-0.017-3.162-0.017-4.651&#10;&#9;&#9;c0-1.49,0-2.869,0-4.141c0-1.269,0.004-2.374,0.017-3.313c0.012-0.941,0.019-1.679,0.019-2.216c0-0.539,0.011-0.819,0.038-0.843&#10;&#9;&#9;c0.146-0.17,0.462-0.244,0.952-0.219c0.486,0.023,1.002,0.097,1.539,0.219c0.539,0.122,1.008,0.282,1.411,0.477&#10;&#9;&#9;c0.403,0.196,0.592,0.377,0.565,0.549l-0.547,17.95c1.342-0.318,2.68-0.592,4.011-0.826c1.33-0.231,2.593-0.42,3.791-0.567&#10;&#9;&#9;c1.196-0.146,2.296-0.256,3.296-0.33c1.002-0.073,1.831-0.098,2.49-0.073c0.025-1.929,0.056-3.852,0.093-5.77&#10;&#9;&#9;c0.036-1.917,0.067-3.754,0.092-5.512c0.024-1.759,0.047-3.396,0.074-4.909c0.022-1.515,0.043-2.828,0.054-3.938&#10;&#9;&#9;c0.012-1.111,0.022-1.99,0.036-2.637C325.625,247.343,325.63,247.019,325.63,247.019"/>
	<path fill="#EC008C" d="M689.966,282.68c-0.064-1.833-0.161-3.491-0.285-4.976c-0.123-1.483-0.255-2.828-0.381-4.028&#10;&#9;&#9;c-0.064-0.379,0.411-0.664,1.423-0.853c1.013-0.189,2.104-0.237,3.271-0.142c1.171,0.095,2.245,0.427,3.223,0.995&#10;&#9;&#9;c0.982,0.569,1.407,1.422,1.278,2.559c0.252,1.833,0.301,4.235,0.142,7.204c-0.155,2.969-0.362,6.115-0.614,9.432&#10;&#9;&#9;c-0.256,3.316-0.457,6.618-0.618,9.906c-0.155,3.282-0.075,6.235,0.236,8.862c0.319,2.621,0.967,4.688,1.944,6.209&#10;&#9;&#9;c0.983,1.515,2.449,2.116,4.407,1.799c1.326-0.188,2.481-1.025,3.459-2.514c0.982-1.482,1.802-3.206,2.462-5.164&#10;&#9;&#9;c0.666-1.958,1.22-3.966,1.665-6.018c0.44-2.055,0.79-3.744,1.042-5.073c0.06-3.412,0.092-6.712,0.092-9.904c0-3.19,0-6.098,0-8.72&#10;&#9;&#9;c0-2.623,0.016-4.929,0.051-6.92c0.029-1.99,0.078-3.522,0.143-4.596c0-0.379,0.44-0.537,1.326-0.474&#10;&#9;&#9;c0.884,0.063,1.832,0.252,2.844,0.569c1.007,0.315,1.926,0.741,2.747,1.278c0.819,0.539,1.198,1.027,1.139,1.47&#10;&#9;&#9;c0,0.252,0.03,1.626,0.095,4.122c0.062,2.496,0.107,5.735,0.142,9.716c0.032,3.981,0.014,8.451-0.048,13.412&#10;&#9;&#9;c-0.064,4.96-0.188,10.03-0.376,15.213c-0.193,5.181-0.494,10.219-0.902,15.117c-0.414,4.898-0.967,9.275-1.66,13.126&#10;&#9;&#9;c-0.568,3.223-1.466,5.833-2.701,7.82c-1.229,1.992-2.621,3.523-4.173,4.598c-1.547,1.074-3.158,1.805-4.834,2.181&#10;&#9;&#9;c-1.671,0.381-3.233,0.569-4.691,0.569c-2.463,0.064-4.515-0.411-6.161-1.421c-1.641-1.013-2.967-2.291-3.979-3.84&#10;&#9;&#9;c-1.013-1.547-1.737-3.255-2.181-5.116c-0.443-1.866-0.738-3.652-0.899-5.357s-0.188-3.177-0.097-4.407&#10;&#9;&#9;c0.097-1.232,0.175-2.008,0.239-2.322c0.126-0.508,0.663-0.98,1.611-1.421c0.947-0.445,1.974-0.789,3.08-1.045&#10;&#9;&#9;c1.106-0.249,2.067-0.378,2.89-0.378c0.821,0,1.203,0.188,1.139,0.569c-0.382,2.718-0.693,5.387-0.948,8.008&#10;&#9;&#9;c-0.25,2.624-0.201,4.963,0.143,7.015c0.349,2.054,1.058,3.697,2.132,4.93c1.077,1.23,2.75,1.783,5.021,1.657&#10;&#9;&#9;c1.518-0.062,2.782-1.343,3.792-3.837c1.013-2.498,1.854-5.736,2.517-9.717c0.663-3.979,1.168-8.528,1.512-13.647&#10;&#9;&#9;c0.35-5.118,0.62-10.333,0.812-15.64c-0.575,1.515-1.284,3.019-2.133,4.501c-0.854,1.487-1.853,2.798-2.986,3.934&#10;&#9;&#9;c-1.144,1.137-2.433,2.055-3.891,2.747c-1.453,0.698-3.064,1.045-4.831,1.045c-2.466-0.062-4.394-0.867-5.785-2.42&#10;&#9;&#9;c-1.391-1.546-2.417-3.565-3.077-6.063c-0.666-2.497-1.045-5.293-1.139-8.39c-0.097-3.096-0.048-6.225,0.143-9.383&#10;&#9;&#9;c0.19-3.159,0.427-6.208,0.711-9.146C689.729,287.372,689.901,284.83,689.966,282.68 M695.369,251.401&#10;&#9;&#9;c1.01,0,1.579,0.3,1.702,0.901c0.129,0.6,0.019,1.263-0.33,1.99c-0.35,0.727-0.824,1.407-1.421,2.038&#10;&#9;&#9;c-0.602,0.631-1.122,1.011-1.563,1.138c-0.19,0.063-0.634,0.094-1.327,0.094c-0.695,0-1.611-0.015-2.75-0.046&#10;&#9;&#9;c-1.138-0.032-2.448-0.064-3.934-0.097c-1.485-0.031-3.048-0.078-4.691-0.141c-0.129,4.17-0.271,8.593-0.425,13.27&#10;&#9;&#9;c-0.161,4.675-0.284,9.288-0.397,13.838c-0.097,4.55-0.172,8.894-0.236,13.032c-0.062,4.139-0.097,7.791-0.097,10.948&#10;&#9;&#9;c0,3.158,0.049,5.672,0.143,7.536c0.094,1.863,0.239,2.795,0.443,2.795c0.692,0.063,1.407-0.41,2.132-1.42&#10;&#9;&#9;c0.73-1.01,1.424-2.277,2.087-3.792c0.663-1.518,1.308-3.161,1.941-4.931c0.634-1.767,1.188-3.41,1.66-4.928&#10;&#9;&#9;c0.472-1.518,0.869-2.779,1.184-3.792c0.314-1.011,0.505-1.516,0.569-1.516s0.236,0.016,0.521,0.047&#10;&#9;&#9;c0.284,0.032,0.588,0.063,0.899,0.095c0.316,0.032,0.602,0.094,0.854,0.189c0.253,0.094,0.379,0.236,0.379,0.425&#10;&#9;&#9;c0,0.128-0.172,0.853-0.521,2.18c-0.35,1.329-0.825,2.954-1.421,4.882c-0.602,1.929-1.359,4.012-2.277,6.257&#10;&#9;&#9;c-0.916,2.243-1.96,4.297-3.126,6.161c-1.165,1.863-2.433,3.41-3.808,4.646c-1.359,1.229-2.844,1.815-4.437,1.751&#10;&#9;&#9;c-1.091,0-1.993-0.317-2.736-0.945c-0.723-0.634-1.308-1.375-1.719-2.229c-0.414-0.854-0.728-1.754-0.948-2.702&#10;&#9;&#9;c-0.226-0.948-0.333-1.77-0.333-2.465c0-0.317,0.014-1.437,0.049-3.362c0.032-1.929,0.097-4.41,0.188-7.441&#10;&#9;&#9;c0.097-3.032,0.19-6.509,0.285-10.426c0.097-3.918,0.204-8.026,0.333-12.322c0.123-4.298,0.236-8.674,0.332-13.128&#10;&#9;&#9;c0.095-4.454,0.172-8.737,0.236-12.845c-3.034-0.126-5.975-0.204-8.818-0.235c-2.842-0.034-5.368,0.016-7.584,0.141&#10;&#9;&#9;c-0.312,0-0.44-0.157-0.376-0.473c0.064-0.317,0.204-0.648,0.425-0.997c0.223-0.348,0.505-0.647,0.854-0.901&#10;&#9;&#9;c0.35-0.252,0.682-0.378,0.994-0.378c1.326-0.064,2.784-0.157,4.36-0.285c1.327-0.126,2.879-0.254,4.648-0.379&#10;&#9;&#9;c1.765-0.126,3.631-0.283,5.592-0.474c0-2.718,0.013-5.277,0.046-7.678c0.031-2.401,0.031-4.565,0-6.494&#10;&#9;&#9;c-0.033-1.925-0.081-3.585-0.141-4.975c-0.064-1.391-0.129-2.433-0.19-3.129c-0.064-0.38,0.411-0.663,1.437-0.854&#10;&#9;&#9;c1.029-0.189,2.116-0.236,3.304-0.141c1.185,0.094,2.274,0.425,3.252,0.995c0.996,0.568,1.421,1.422,1.297,2.56&#10;&#9;&#9;c-0.064,0.252-0.161,2.148-0.284,5.686c-0.129,3.54-0.285,7.995-0.473,13.366c1.896-0.126,3.679-0.252,5.354-0.38&#10;&#9;&#9;c1.676-0.126,3.158-0.236,4.452-0.332c1.298-0.094,2.342-0.173,3.129-0.236C694.88,251.432,695.307,251.401,695.369,251.401z&#10;&#9;&#9; M655.557,257.658c0-2.15,0.586-3.982,1.754-5.499c1.171-1.517,2.575-2.274,4.216-2.274c1.646,0,3.04,0.757,4.177,2.274&#10;&#9;&#9;c1.136,1.516,1.699,3.349,1.699,5.499c0,2.147-0.563,3.98-1.699,5.496c-1.137,1.518-2.53,2.275-4.177,2.275&#10;&#9;&#9;c-1.641,0-3.045-0.757-4.216-2.275C656.143,261.638,655.557,259.805,655.557,257.658z M657.359,272.728&#10;&#9;&#9;c0.375-0.063,1.01-0.047,1.896,0.048c0.886,0.094,1.751,0.299,2.604,0.615c0.854,0.317,1.599,0.806,2.229,1.469&#10;&#9;&#9;c0.631,0.664,0.915,1.564,0.854,2.703c-0.064,0.252-0.158,1.437-0.287,3.554c-0.126,2.116-0.266,4.708-0.427,7.773&#10;&#9;&#9;c-0.156,3.063-0.314,6.333-0.473,9.809c-0.156,3.476-0.269,6.683-0.333,9.621c-0.06,2.938-0.06,5.403,0,7.394&#10;&#9;&#9;c0.064,1.989,0.255,2.985,0.569,2.985c0.698,0.063,1.407-0.41,2.138-1.42c0.722-1.01,1.434-2.277,2.132-3.792&#10;&#9;&#9;c0.693-1.518,1.338-3.161,1.944-4.931c0.597-1.767,1.149-3.41,1.657-4.928c0.502-1.518,0.899-2.779,1.184-3.792&#10;&#9;&#9;c0.285-1.011,0.457-1.516,0.521-1.516c0.059,0,0.236,0.016,0.521,0.047c0.285,0.032,0.583,0.063,0.902,0.095&#10;&#9;&#9;c0.312,0.032,0.597,0.094,0.852,0.189c0.25,0.094,0.379,0.236,0.379,0.425c0,0.128-0.178,0.853-0.521,2.18&#10;&#9;&#9;c-0.349,1.329-0.821,2.954-1.42,4.882c-0.604,1.929-1.362,4.012-2.274,6.257c-0.919,2.243-1.944,4.297-3.081,6.161&#10;&#9;&#9;c-1.136,1.863-2.403,3.41-3.794,4.646c-1.389,1.229-2.847,1.815-4.361,1.751c-1.074,0-1.971-0.333-2.701-0.994&#10;&#9;&#9;c-0.726-0.666-1.295-1.438-1.706-2.322c-0.41-0.884-0.728-1.802-0.947-2.747c-0.221-0.951-0.36-1.708-0.425-2.277&#10;&#9;&#9;c-0.064-0.376-0.064-1.722,0-4.028c0.064-2.305,0.14-5.086,0.236-8.341c0.092-3.255,0.236-6.713,0.425-10.378&#10;&#9;&#9;c0.19-3.664,0.381-7.061,0.569-10.188c0.188-3.128,0.378-5.72,0.569-7.773C656.978,273.849,657.168,272.791,657.359,272.728z&#10;&#9;&#9; M620.109,284.765c0.566-1.579,1.275-3.143,2.132-4.691c0.852-1.548,1.863-2.938,3.032-4.17c1.171-1.233,2.497-2.228,3.979-2.986&#10;&#9;&#9;c1.487-0.757,3.145-1.105,4.979-1.042c2.337,0.063,4.185,0.806,5.546,2.228c1.356,1.421,2.382,3.271,3.08,5.545&#10;&#9;&#9;c0.693,2.275,1.106,4.85,1.23,7.724c0.126,2.876,0.126,5.814,0,8.815c-0.124,3.002-0.331,5.956-0.613,8.862&#10;&#9;&#9;c-0.284,2.908-0.494,5.499-0.617,7.771c-0.129,2.277-0.129,4.141,0,5.594c0.123,1.453,0.537,2.213,1.23,2.274&#10;&#9;&#9;c1.262,0.188,2.465-0.236,3.604-1.278s2.148-2.4,3.031-4.076c0.884-1.676,1.706-3.491,2.463-5.452&#10;&#9;&#9;c0.76-1.954,1.407-3.808,1.944-5.542c0.537-1.74,0.967-3.175,1.278-4.313c0.317-1.138,0.569-1.707,0.76-1.707&#10;&#9;&#9;c0.191,0,0.68,0.047,1.469,0.143c0.793,0.094,1.185,0.299,1.185,0.615c0,0.949-0.172,2.276-0.521,3.984&#10;&#9;&#9;c-0.347,1.702-0.884,3.568-1.611,5.591c-0.728,2.02-1.611,4.076-2.653,6.16c-1.045,2.084-2.274,3.948-3.698,5.592&#10;&#9;&#9;c-1.42,1.644-3.002,2.953-4.737,3.934c-1.74,0.98-3.649,1.343-5.735,1.091c-1.832-0.191-3.207-1.045-4.12-2.56&#10;&#9;&#9;c-0.918-1.518-1.536-3.442-1.848-5.782c-0.316-2.339-0.445-4.976-0.381-7.913c0.064-2.938,0.188-5.893,0.381-8.862&#10;&#9;&#9;c0.188-2.97,0.312-5.861,0.376-8.674c0.064-2.812-0.08-5.277-0.424-7.393c-0.35-2.116-0.983-3.76-1.896-4.929&#10;&#9;&#9;c-0.918-1.168-2.325-1.626-4.221-1.375c-1.453,0.254-2.702,1.265-3.744,3.035c-1.042,1.769-1.896,3.774-2.557,6.018&#10;&#9;&#9;c-0.666,2.244-1.2,4.439-1.611,6.587c-0.413,2.15-0.743,3.697-0.996,4.645c-0.126,5.75-0.158,10.807-0.097,15.165&#10;&#9;&#9;c0.064,4.361,0.285,7.868,0.666,10.521c0.062,0.379-0.395,0.666-1.378,0.854c-0.978,0.188-2.067,0.236-3.271,0.14&#10;&#9;&#9;c-1.198-0.091-2.272-0.424-3.223-0.993c-0.945-0.569-1.356-1.423-1.229-2.56c0-0.19,0.064-1.834,0.188-4.928&#10;&#9;&#9;c0.129-3.096,0.255-7.079,0.382-11.944h-0.097c0.19-5.496,0.316-9.903,0.381-13.221c0.064-3.317,0.064-6.02,0-8.105&#10;&#9;&#9;c-0.064-2.085-0.158-3.821-0.284-5.214c-0.127-1.388-0.317-2.938-0.569-4.643c-0.064-0.38,0.376-0.663,1.326-0.854&#10;&#9;&#9;c0.948-0.189,2.009-0.236,3.174-0.141c1.171,0.094,2.245,0.426,3.223,0.995c0.983,0.568,1.439,1.422,1.378,2.56L620.109,284.765z&#10;&#9;&#9; M586.936,320.404c1.197,0,2.207-0.301,3.032-0.9c0.818-0.599,1.498-1.326,2.038-2.181c0.537-0.851,0.978-1.77,1.326-2.747&#10;&#9;&#9;c0.347-0.979,0.645-1.912,0.899-2.798c0-1.644,0.046-3.585,0.143-5.827c0.094-2.245,0.188-4.614,0.285-7.11&#10;&#9;&#9;c0.094-2.496,0.22-5.008,0.378-7.535c0.159-2.527,0.299-4.929,0.428-7.204c-0.129,0.126-0.191-0.063-0.191-0.568&#10;&#9;&#9;c0.063-0.822-0.077-1.691-0.427-2.607c-0.349-0.916-0.806-1.753-1.375-2.512c-0.566-0.757-1.2-1.388-1.896-1.895&#10;&#9;&#9;c-0.693-0.506-1.359-0.759-1.987-0.759c-1.203,0-2.262,0.459-3.175,1.375c-0.918,0.916-1.724,2.116-2.416,3.601&#10;&#9;&#9;c-0.698,1.485-1.284,3.129-1.757,4.929c-0.476,1.801-0.854,3.586-1.139,5.356c-0.284,1.768-0.505,3.412-0.663,4.928&#10;&#9;&#9;c-0.158,1.516-0.269,2.718-0.33,3.603c-0.129,1.264-0.146,3.063-0.049,5.401c0.094,2.34,0.365,4.676,0.806,7.015&#10;&#9;&#9;s1.139,4.343,2.084,6.019C583.9,319.663,585.228,320.469,586.936,320.404z M596.601,272.728c0.379-0.063,1.013-0.047,1.896,0.048&#10;&#9;&#9;c0.884,0.094,1.77,0.299,2.656,0.615c0.881,0.317,1.644,0.806,2.271,1.469c0.634,0.664,0.887,1.564,0.758,2.703&#10;&#9;&#9;c-0.064,0.252-0.156,1.437-0.285,3.554c-0.123,2.116-0.263,4.708-0.424,7.773c-0.156,3.063-0.301,6.333-0.427,9.809&#10;&#9;&#9;c-0.127,3.476-0.218,6.683-0.285,9.621c-0.064,2.938-0.064,5.403,0,7.394c0.067,1.989,0.221,2.985,0.476,2.985&#10;&#9;&#9;c0.692,0.063,1.407-0.41,2.132-1.42c0.728-1.01,1.439-2.277,2.133-3.792c0.695-1.518,1.358-3.161,1.989-4.931&#10;&#9;&#9;c0.634-1.767,1.185-3.41,1.657-4.928c0.476-1.518,0.854-2.779,1.139-3.792c0.285-1.011,0.462-1.516,0.521-1.516&#10;&#9;&#9;c0.064,0,0.238,0.016,0.521,0.047c0.285,0.032,0.588,0.063,0.902,0.095c0.316,0.032,0.602,0.094,0.854,0.189&#10;&#9;&#9;c0.253,0.094,0.379,0.236,0.379,0.425c0,0.128-0.175,0.853-0.523,2.18c-0.344,1.329-0.816,2.954-1.418,4.882&#10;&#9;&#9;c-0.602,1.929-1.358,4.012-2.277,6.257c-0.916,2.243-1.944,4.297-3.08,6.161c-1.136,1.863-2.398,3.41-3.792,4.646&#10;&#9;&#9;c-1.391,1.229-2.844,1.815-4.358,1.751c-0.822,0-1.518-0.172-2.084-0.521c-0.569-0.346-1.074-0.805-1.52-1.374&#10;&#9;&#9;c-0.44-0.569-0.79-1.198-1.042-1.896c-0.253-0.692-0.473-1.389-0.661-2.084c-0.886,1.518-1.866,2.686-2.938,3.508&#10;&#9;&#9;c-1.077,0.821-2.133,1.423-3.177,1.799c-1.042,0.381-1.979,0.585-2.796,0.617c-0.822,0.032-1.424,0.017-1.799-0.048&#10;&#9;&#9;c-0.89-0.062-2.058-0.362-3.513-0.897c-1.45-0.539-2.874-1.643-4.265-3.318c-1.386-1.676-2.573-4.125-3.553-7.348&#10;&#9;&#9;c-0.98-3.223-1.438-7.581-1.378-13.078c0.064-4.74,0.494-8.737,1.281-11.992c0.792-3.253,1.753-5.923,2.892-8.008&#10;&#9;&#9;c1.139-2.087,2.401-3.713,3.792-4.882c1.392-1.168,2.734-2.006,4.028-2.512c1.295-0.505,2.433-0.806,3.413-0.899&#10;&#9;&#9;c0.98-0.096,1.689-0.143,2.135-0.143c0.945,0,1.783,0.204,2.509,0.616c0.728,0.41,1.391,0.916,1.992,1.516&#10;&#9;&#9;c0.597,0.602,1.104,1.249,1.515,1.944c0.408,0.694,0.741,1.357,0.996,1.988c0.127-1.578,0.25-2.826,0.379-3.743&#10;&#9;&#9;C596.346,273.281,596.475,272.791,596.601,272.728z M534.23,314.909c0.129,1.832,0.236,3.488,0.333,4.974&#10;&#9;&#9;c0.094,1.485,0.236,2.831,0.43,4.028c0.06,0.379-0.413,0.666-1.426,0.854c-1.01,0.188-2.1,0.236-3.269,0.14&#10;&#9;&#9;c-1.171-0.091-2.245-0.424-3.225-0.993c-0.98-0.569-1.404-1.423-1.281-2.56c-0.314-1.834-0.379-4.234-0.188-7.202&#10;&#9;&#9;c0.188-2.97,0.396-6.114,0.614-9.432c0.224-3.316,0.411-6.619,0.569-9.905s0.083-6.24-0.239-8.862&#10;&#9;&#9;c-0.312-2.624-0.958-4.677-1.941-6.162c-0.978-1.485-2.446-2.1-4.406-1.849c-1.45,0.254-2.702,1.265-3.744,3.035&#10;&#9;&#9;c-1.042,1.769-1.896,3.774-2.559,6.018c-0.664,2.244-1.201,4.439-1.611,6.587c-0.408,2.15-0.739,3.697-0.997,4.645&#10;&#9;&#9;c-0.123,5.75-0.155,10.807-0.091,15.165c0.064,4.361,0.282,7.868,0.66,10.521c0.064,0.379-0.392,0.666-1.358,0.854&#10;&#9;&#9;c-0.961,0.188-2.052,0.236-3.238,0.14c-1.182-0.091-2.243-0.424-3.19-0.993c-0.93-0.569-1.343-1.423-1.214-2.56&#10;&#9;&#9;c0-0.19,0.062-1.834,0.188-4.928c0.124-3.096,0.253-7.079,0.382-11.944h-0.097c0.188-5.496,0.314-9.903,0.381-13.221&#10;&#9;&#9;c0.06-3.317,0.06-6.02,0-8.105c-0.066-2.085-0.161-3.821-0.284-5.214c-0.129-1.388-0.317-2.938-0.569-4.643&#10;&#9;&#9;c-0.064-0.38,0.379-0.663,1.311-0.854c0.945-0.189,1.987-0.236,3.142-0.141c1.155,0.094,2.229,0.426,3.19,0.995&#10;&#9;&#9;c0.967,0.568,1.423,1.422,1.358,2.56l-0.284,8.909c0.569-1.579,1.281-3.143,2.132-4.691c0.854-1.548,1.867-2.938,3.035-4.17&#10;&#9;&#9;c1.171-1.233,2.497-2.228,3.979-2.986c1.488-0.757,3.147-1.105,4.979-1.042c1.644,0.063,3.049,0.474,4.217,1.232&#10;&#9;&#9;c1.171,0.757,2.132,1.769,2.893,3.032c0.757,1.265,1.34,2.765,1.753,4.502c0.411,1.739,0.709,3.586,0.899,5.545&#10;&#9;&#9;c0.567-1.705,1.266-3.412,2.087-5.118c0.819-1.707,1.831-3.253,3.034-4.645c1.198-1.39,2.573-2.511,4.123-3.365&#10;&#9;&#9;c1.547-0.853,3.332-1.247,5.354-1.184c2.339,0.063,4.187,0.806,5.546,2.228c1.355,1.421,2.384,3.271,3.077,5.545&#10;&#9;&#9;c0.698,2.275,1.109,4.85,1.235,7.724c0.126,2.876,0.126,5.814,0,8.815c-0.126,3.002-0.333,5.956-0.618,8.862&#10;&#9;&#9;c-0.284,2.908-0.488,5.499-0.617,7.771c-0.124,2.277-0.124,4.141,0,5.594c0.129,1.453,0.542,2.213,1.235,2.274&#10;&#9;&#9;c1.262,0.188,2.449-0.236,3.553-1.278c1.109-1.042,2.119-2.4,3.032-4.076c0.918-1.676,1.74-3.491,2.465-5.452&#10;&#9;&#9;c0.728-1.954,1.375-3.808,1.944-5.542c0.566-1.74,1.01-3.175,1.326-4.313c0.317-1.138,0.569-1.707,0.758-1.707&#10;&#9;&#9;c0.064,0,0.236,0.016,0.521,0.047c0.285,0.032,0.586,0.063,0.902,0.095c0.317,0.032,0.602,0.094,0.854,0.189&#10;&#9;&#9;c0.252,0.094,0.379,0.236,0.379,0.425c0,0.949-0.175,2.276-0.524,3.984c-0.344,1.702-0.883,3.568-1.611,5.591&#10;&#9;&#9;c-0.725,2.02-1.624,4.076-2.701,6.16c-1.074,2.084-2.304,3.948-3.695,5.592c-1.391,1.644-2.954,2.953-4.691,3.934&#10;&#9;&#9;s-3.649,1.343-5.733,1.091c-1.834-0.191-3.206-1.045-4.125-2.56c-0.918-1.518-1.53-3.442-1.848-5.782&#10;&#9;&#9;c-0.316-2.339-0.443-4.976-0.379-7.913c0.063-2.938,0.191-5.893,0.379-8.862c0.19-2.97,0.317-5.861,0.382-8.674&#10;&#9;&#9;c0.059-2.812-0.081-5.277-0.43-7.393c-0.35-2.116-0.978-3.76-1.896-4.929c-0.915-1.168-2.32-1.626-4.216-1.375&#10;&#9;&#9;c-1.077,0.191-2.041,0.822-2.89,1.896c-0.854,1.076-1.601,2.354-2.229,3.84c-0.633,1.485-1.187,3.096-1.659,4.834&#10;&#9;&#9;c-0.476,1.737-0.87,3.365-1.182,4.881c-0.322,1.517-0.574,2.813-0.763,3.886c-0.188,1.075-0.347,1.674-0.473,1.8&#10;&#9;&#9;c-0.19,3.033-0.413,5.926-0.666,8.673C534.451,310.5,534.295,312.885,534.23,314.909z M488.355,272.728&#10;&#9;&#9;c0.378-0.063,1.012-0.047,1.896,0.048c0.884,0.094,1.77,0.299,2.653,0.615c0.886,0.317,1.644,0.806,2.277,1.469&#10;&#9;&#9;c0.628,0.664,0.883,1.564,0.754,2.703c-0.062,0.252-0.155,1.437-0.279,3.554c-0.128,2.116-0.273,4.708-0.429,7.773&#10;&#9;&#9;c-0.159,3.063-0.301,6.333-0.428,9.809c-0.126,3.476-0.223,6.683-0.284,9.621s-0.062,5.403,0,7.394&#10;&#9;&#9;c0.062,1.989,0.223,2.985,0.476,2.985c0.692,0.063,1.407-0.41,2.132-1.42s1.439-2.277,2.132-3.792&#10;&#9;&#9;c0.696-1.518,1.359-3.161,1.993-4.931c0.628-1.767,1.185-3.41,1.659-4.928c0.473-1.518,0.852-2.779,1.136-3.792&#10;&#9;&#9;c0.282-1.011,0.457-1.516,0.521-1.516c0.062,0,0.236,0.016,0.521,0.047c0.285,0.032,0.583,0.063,0.9,0.095&#10;&#9;&#9;c0.316,0.032,0.599,0.094,0.854,0.189c0.253,0.094,0.379,0.236,0.379,0.425c0,0.128-0.175,0.853-0.521,2.18&#10;&#9;&#9;c-0.349,1.329-0.824,2.954-1.42,4.882c-0.602,1.929-1.359,4.012-2.277,6.257c-0.916,2.243-1.941,4.297-3.083,6.161&#10;&#9;&#9;c-1.134,1.863-2.401,3.41-3.787,4.646c-1.391,1.229-2.844,1.815-4.36,1.751c-1.074,0-1.977-0.333-2.702-0.994&#10;&#9;&#9;c-0.725-0.666-1.294-1.438-1.708-2.322c-0.408-0.884-0.725-1.802-0.945-2.747c-0.223-0.951-0.365-1.708-0.427-2.277&#10;&#9;&#9;c0-0.062-0.016-0.204-0.048-0.425c-0.032-0.223-0.046-0.427-0.046-0.617c-0.634,1.326-1.359,2.607-2.184,3.84&#10;&#9;&#9;c-0.819,1.23-1.751,2.32-2.795,3.269c-1.042,0.948-2.229,1.691-3.556,2.226c-1.327,0.537-2.777,0.809-4.358,0.809&#10;&#9;&#9;c-2.463-0.062-4.392-0.867-5.782-2.42c-1.391-1.546-2.417-3.565-3.08-6.063c-0.663-2.497-1.042-5.293-1.136-8.39&#10;&#9;&#9;c-0.097-3.096-0.049-6.225,0.14-9.383c0.19-3.159,0.43-6.208,0.714-9.146c0.282-2.939,0.457-5.481,0.521-7.631&#10;&#9;&#9;c-0.064-1.833-0.161-3.491-0.285-4.976c-0.129-1.483-0.255-2.828-0.381-4.028c-0.064-0.379,0.408-0.664,1.423-0.853&#10;&#9;&#9;c1.01-0.189,2.1-0.237,3.271-0.142c1.169,0.095,2.243,0.427,3.221,0.995c0.979,0.569,1.407,1.422,1.28,2.559&#10;&#9;&#9;c0.253,1.833,0.301,4.235,0.14,7.204c-0.155,2.969-0.359,6.115-0.614,9.432c-0.25,3.316-0.457,6.618-0.615,9.906&#10;&#9;&#9;c-0.156,3.282-0.078,6.235,0.236,8.862c0.316,2.621,0.967,4.688,1.944,6.209c0.978,1.515,2.449,2.116,4.404,1.799&#10;&#9;&#9;c1.015-0.129,1.928-0.68,2.75-1.659c0.821-0.978,1.552-2.148,2.18-3.508c0.634-1.358,1.188-2.857,1.66-4.501&#10;&#9;&#9;c0.473-1.643,0.87-3.189,1.187-4.646c0.124-3.223,0.285-6.729,0.473-10.52c0.188-3.791,0.379-7.315,0.567-10.569&#10;&#9;&#9;c0.19-3.255,0.381-5.971,0.571-8.151C487.977,273.913,488.164,272.791,488.355,272.728z M447.122,216.426&#10;&#9;&#9;c0-0.505,0.68-0.759,2.039-0.759c1.358,0,2.856,0.159,4.503,0.474c1.641,0.315,3.158,0.743,4.55,1.279&#10;&#9;&#9;c1.388,0.537,2.113,1.06,2.178,1.564l-7.772,113.552c-0.375,0.378-1.025,0.553-1.938,0.521c-0.918-0.032-1.805-0.158-2.658-0.379&#10;&#9;&#9;c-0.854-0.223-1.563-0.491-2.13-0.806c-0.572-0.313-0.728-0.599-0.476-0.851c0.062-4.426,0.126-9.195,0.188-14.313&#10;&#9;&#9;c0.064-4.361,0.129-9.367,0.19-15.025c0.062-5.654,0.158-11.642,0.287-17.96c-4.995,0.126-10.586,0.759-16.778,1.896&#10;&#9;&#9;c-6.193,1.137-12.354,2.779-18.483,4.929l-1.232,41.137c-0.128,0.314-0.649,0.502-1.564,0.566&#10;&#9;&#9;c-0.917,0.064-1.895,0.049-2.939-0.048c-1.041-0.095-1.988-0.269-2.841-0.519c-0.855-0.255-1.25-0.54-1.186-0.854&#10;&#9;&#9;c-0.064-3.287-0.097-6.889-0.097-10.807c0-3.349-0.015-7.219-0.047-11.609c-0.032-4.394-0.047-9.053-0.047-13.982&#10;&#9;&#9;c-6.128,2.716-11.471,5.781-16.021,9.194c-0.314,0-0.74-0.301-1.28-0.899c-0.536-0.602-1.024-1.375-1.469-2.323&#10;&#9;&#9;c-0.44-0.948-0.757-1.991-0.947-3.128c-0.19-1.137-0.031-2.244,0.474-3.317c2.148-1.707,4.881-3.285,8.199-4.74&#10;&#9;&#9;c3.319-1.453,6.967-2.779,10.951-3.981c0-4.234-0.018-8.437-0.05-12.605c-0.032-4.172-0.048-8.184-0.048-12.038&#10;&#9;&#9;c0-3.855,0-7.425,0-10.711s0.016-6.146,0.048-8.579c0.032-2.433,0.05-4.344,0.05-5.734c0-1.391,0.03-2.117,0.093-2.18&#10;&#9;&#9;c0.378-0.442,1.199-0.633,2.465-0.569c1.262,0.063,2.59,0.252,3.981,0.569c1.39,0.315,2.606,0.726,3.648,1.232&#10;&#9;&#9;c1.043,0.505,1.532,0.979,1.469,1.422l-1.42,46.444c3.474-0.822,6.934-1.532,10.376-2.132c3.445-0.6,6.714-1.09,9.81-1.47&#10;&#9;&#9;c3.097-0.377,5.943-0.664,8.532-0.853c2.592-0.189,4.739-0.252,6.445-0.189c0.064-4.992,0.142-9.968,0.236-14.929&#10;&#9;&#9;c0.097-4.961,0.177-9.716,0.241-14.265c0.06-4.55,0.124-8.784,0.186-12.701c0.062-3.918,0.11-7.315,0.143-10.19&#10;&#9;&#9;c0.032-2.875,0.064-5.149,0.097-6.824S447.122,216.426,447.122,216.426z"/>
	<path fill-rule="evenodd" clip-rule="evenodd" fill="#EC008C" d="M230.111,282.713c3.601,0,6.521,2.919,6.521,6.519&#10;&#9;&#9;c0,3.601-2.92,6.519-6.521,6.519c-3.6,0-6.518-2.918-6.518-6.519C223.593,285.633,226.511,282.713,230.111,282.713"/>
	<path fill-rule="evenodd" clip-rule="evenodd" fill="#EC008C" d="M256.507,275.025c3.048,0,5.519,2.472,5.519,5.52&#10;&#9;&#9;c0,3.049-2.471,5.52-5.519,5.52c-3.051,0-5.524-2.471-5.524-5.52C250.983,277.497,253.457,275.025,256.507,275.025"/>
	<path fill-rule="evenodd" clip-rule="evenodd" fill="#0076AA" d="M273.998,263.835c2.58,0,4.674,2.093,4.674,4.677&#10;&#9;&#9;c0,2.582-2.095,4.676-4.674,4.676c-2.584,0-4.679-2.094-4.679-4.676C269.318,265.928,271.413,263.835,273.998,263.835"/>
	<path fill-rule="evenodd" clip-rule="evenodd" fill="#0076AA" d="M295.25,257.123c2.323,0,4.206,1.882,4.206,4.204&#10;&#9;&#9;c0,2.323-1.883,4.205-4.206,4.205c-2.322,0-4.204-1.882-4.204-4.205C291.046,259.005,292.929,257.123,295.25,257.123"/>
	<path fill-rule="evenodd" clip-rule="evenodd" fill="#EC008C" d="M309.788,246.132c1.707,0,3.087,1.381,3.087,3.085&#10;&#9;&#9;s-1.38,3.085-3.087,3.085c-1.701,0-3.084-1.381-3.084-3.085S308.087,246.132,309.788,246.132"/>
	<path fill-rule="evenodd" clip-rule="evenodd" fill="#EC008C" d="M328.008,239.667c1.611,0,2.912,1.305,2.912,2.912&#10;&#9;&#9;c0,1.609-1.301,2.911-2.912,2.911c-1.607,0-2.91-1.302-2.91-2.911C325.098,240.972,326.4,239.667,328.008,239.667"/>
	<path fill="#0076AA" d="M677.833,382.261c5.822,0,10.116-2.409,10.116-6.918c0-3.668-2.414-5.505-7.13-7.495l-3.145-1.311&#10;&#9;&#9;c-2.409-1.05-3.878-2.253-3.878-4.09c0-2.095,1.522-3.614,4.77-3.614c4.197,0,6.34,2.411,6.92,5.816h1.52&#10;&#9;&#9;c0-2.672,0-4.716-1.31-5.924c-1.362-1.308-3.985-2.148-8.178-2.148c-5.454,0-9.434,2.411-9.434,6.92&#10;&#9;&#9;c0,3.408,2.406,5.503,6.552,7.232l2.882,1.26c2.882,1.205,4.719,2.357,4.719,4.401c0,2.097-1.521,3.617-5.454,3.617&#10;&#9;&#9;c-4.295,0-6.445-2.409-7.022-5.819h-1.521c0,2.675,0,4.718,1.257,5.924C670.915,381.423,673.536,382.261,677.833,382.261&#10;&#9;&#9; M651.413,380.008c-3.878,0-5.397-4.558-5.397-10.589c0-6.026,1.52-10.586,5.769-10.586c1.78,0,3.405,0.838,4.662,1.573v16.301&#10;&#9;&#9;C655.557,378.12,654.19,380.008,651.413,380.008z M650.156,382.261c3.513,0,5.452-1.52,6.448-2.882h0.261l1.836,2.361h3.723&#10;&#9;&#9;v-27.994c0-5.239-1.053-6.601-4.716-6.601h-5.664v1.361h0.733c3.147,0,3.669,2.098,3.669,5.239v4.404&#10;&#9;&#9;c-1.413-0.784-3.352-1.573-5.919-1.573c-7.289,0-10.747,5.715-10.747,12.842C639.78,376.549,643.238,382.261,650.156,382.261z&#10;&#9;&#9; M612.522,381.74h5.924v-20.759c1.102-0.997,2.777-1.886,4.823-1.886c2.882,0,5.293,1.886,5.293,7.021v15.624h5.922v-15.624&#10;&#9;&#9;c0-7.074-3.824-9.539-9.485-9.539c-3.829,0-6.134,1.364-7.444,2.519c-0.682-1.364-1.938-1.992-4.401-1.992h-5.032v1.361h0.733&#10;&#9;&#9;c3.145,0,3.668,2.098,3.668,5.242V381.74z M594.489,379.747c-2.304,0-4.036-1.52-4.036-4.667c0-3.51,2.466-5.398,7.601-5.398h1.101&#10;&#9;&#9;v6.763C598.37,377.964,596.904,379.747,594.489,379.747z M592.602,382.261c3.459,0,5.715-1.466,6.711-2.882h0.261l1.837,2.361&#10;&#9;&#9;h3.722v-14.152c0-8.229-4.09-11.011-10.116-11.011c-3.306,0-6.604,0.473-7.862,1.837c-1.257,1.364-1.309,3.195-1.309,5.032h2.67&#10;&#9;&#9;c0.789-3.722,2.83-4.613,5.451-4.613c3.147,0,5.188,1.885,5.188,8.596h-1.101c-9.539,0-13.836,2.358-13.836,7.651&#10;&#9;&#9;C584.218,379.903,587.993,382.261,592.602,382.261z M550.566,381.74h5.921v-16.773h14.781v10.167c0,5.296,1.05,6.606,4.719,6.606&#10;&#9;&#9;h5.66v-1.364h-0.732c-3.143,0-3.669-2.095-3.669-5.242v-27.988h-5.978v15.565h-14.781v-8.965c0-5.239-1.044-6.601-4.715-6.601&#10;&#9;&#9;h-5.661v1.361h0.787c3.145,0,3.668,2.098,3.668,5.239V381.74z M518.8,389.968c-3.722,0-6.235-1.772-6.235-5.862&#10;&#9;&#9;c0-3.346,1.573-5.18,4.036-6.177l2.618,0.261c3.62,0.58,5.769,2.621,5.769,5.916C524.987,388.195,522.474,389.968,518.8,389.968z&#10;&#9;&#9; M518.8,370.627c-2.669,0-4.662-1.627-4.662-5.978s1.993-6.08,4.662-6.08c2.621,0,4.616,1.993,4.616,6.08&#10;&#9;&#9;C523.416,369,521.421,370.627,518.8,370.627z M518.8,392.221c6.972,0,12.268-2.043,12.268-8.115c0-5.599-5.505-8.123-12.268-8.23&#10;&#9;&#9;c-3.354,0-5.344-0.365-5.344-1.579c0-1.311,1.99-1.679,5.344-1.679c6.241,0,10.693-1.938,10.693-7.968&#10;&#9;&#9;c0-2.567-1.885-4.979-4.401-6.134l4.139-0.574v-1.364H518.8c-5.973,0-10.741,1.992-10.741,8.072c0,3.249,2.095,5.87,4.715,6.921&#10;&#9;&#9;c-1.154,0.577-1.992,1.361-1.992,2.726c0,1.633,1.05,2.524,2.256,3.005c-3.303,0.942-6.553,3.198-6.553,6.805&#10;&#9;&#9;C506.484,390.178,511.78,392.221,518.8,392.221z M480.382,381.74h5.924v-20.759c1.102-0.997,2.777-1.886,4.823-1.886&#10;&#9;&#9;c2.879,0,5.293,1.886,5.293,7.021v15.624h5.922v-15.624c0-7.074-3.824-9.539-9.49-9.539c-3.824,0-6.129,1.364-7.439,2.519&#10;&#9;&#9;c-0.682-1.364-1.938-1.992-4.401-1.992h-5.032v1.361h0.733c3.145,0,3.668,2.098,3.668,5.242V381.74z M466.805,381.74h5.975v-18.033&#10;&#9;&#9;c0-5.242-1.045-6.604-4.719-6.604h-5.66v1.361h0.738c3.145,0,3.666,2.098,3.666,5.242V381.74z M469.635,354.165&#10;&#9;&#9;c1.573,0,2.729-1.047,2.729-2.723c0-1.992-1.311-3.722-3.563-3.722c-1.523,0-2.678,0.996-2.678,2.675&#10;&#9;&#9;C466.122,352.385,467.382,354.165,469.635,354.165z M448.409,380.008c-1.732,0-3.513-0.838-4.716-1.571V361.19&#10;&#9;&#9;c0.993-1.151,2.514-2.357,5.081-2.357c3.823,0,5.397,4.56,5.397,10.586C454.172,375.45,452.651,380.008,448.409,380.008z&#10;&#9;&#9; M437.769,391.697h5.925v-11.008c1.308,0.787,3.405,1.571,5.973,1.571c7.285,0,10.693-5.712,10.693-12.842&#10;&#9;&#9;c0-7.127-3.459-12.842-10.328-12.842c-3.669,0-5.922,1.573-7.232,2.782c-0.68-1.628-1.937-2.256-4.401-2.256h-5.032v1.361h0.73&#10;&#9;&#9;c3.146,0,3.673,2.098,3.673,5.242V391.697z M423.88,381.74h5.973v-27.994c0-5.239-1.05-6.601-4.719-6.601h-5.658v1.361h0.733&#10;&#9;&#9;c3.145,0,3.671,2.098,3.671,5.239V381.74z M402.387,368.058c0-6.341,2.201-9.225,4.875-9.225c3.091,0,4.873,2.621,4.873,9.225&#10;&#9;&#9;H402.387z M407.785,382.261c5.031,0,7.861-2.463,9.697-5.503l-1.362-1.047c-1.835,2.57-3.933,4.297-7.444,4.297&#10;&#9;&#9;c-3.826,0-6.29-3.25-6.29-9.697h15.83l0.158-2.83c0-6.709-4.353-10.903-11.112-10.903c-6.5,0-11.114,4.979-11.114,12.842&#10;&#9;&#9;C396.148,376.653,400.396,382.261,407.785,382.261z M362.132,381.74h5.923v-16.773h14.781v10.167c0,5.296,1.047,6.606,4.718,6.606&#10;&#9;&#9;h5.661v-1.364h-0.735c-3.145,0-3.668-2.095-3.668-5.242v-27.988h-5.976v15.565h-14.781v-8.965c0-5.239-1.052-6.601-4.717-6.601&#10;&#9;&#9;h-5.661v1.361h0.784c3.145,0,3.671,2.098,3.671,5.239V381.74z"/>
	<path fill-rule="evenodd" clip-rule="evenodd" fill="#0076AA" d="M255.659,249.948c6.957-35.459-28.928-52.361-58.72-51.03&#10;&#9;&#9;c-31.064,1.39-49.472,18.199-57.562,40.495c8.552-21.007,26.715-36.588,56.573-37.922c29.792-1.332,65.674,15.57,58.719,51.03&#10;&#9;&#9;c-1.655,8.446,9.101,2.695,9.101,2.695c19.244-13.95,31.576-21.7,51.35-23.651c30.208-2.978,43.022,20.342,34.049,46.947&#10;&#9;&#9;c12.001-29.42-1.061-55.28-33.061-51.002c-19.696,2.633-35.272,9.502-54.514,23.452&#10;&#9;&#9;C261.595,250.962,254.002,258.396,255.659,249.948"/>
	<path fill-rule="evenodd" clip-rule="evenodd" fill="#0076AA" d="M357.33,288.886c-29.685,47.11-81.928,87.623-122.809,117.772&#10;&#9;&#9;l0.167,4.641c11.846-8.715,31.022-21.583,48.059-35.069C318.525,347.903,350.03,306.01,357.33,288.886"/>
	<path d="M 282.3479919433594 362.2139892578125 L 271.9339904785156 371.8949890136719 L 245.572998046875 383.3290100097656 Z" fill-rule="evenodd" clip-rule="evenodd" fill="#0076AA"/>
	<path fill-rule="evenodd" clip-rule="evenodd" fill="#0076AA" d="M135.595,293.113c-4.585-13.565-9.728-36.313-1.672-58.64&#10;&#9;&#9;c-18.343,40.773,6.845,70.855,6.845,70.855C139.335,301.262,137.148,297.712,135.595,293.113"/>
	<path fill-rule="evenodd" clip-rule="evenodd" fill="#0076AA" d="M257.688,215.167c-4.576-15.381-27.052-27.271-51.506-28.09&#10;&#9;&#9;c-3.507-0.117-9.326-0.114-12.527,0.576c25.058-1.726,52.778,8.339,61.435,23.868C255.938,212.662,256.791,213.872,257.688,215.167&#10;&#9;&#9;"/>
</g></g></svg>