<?xml version="1.0" encoding="UTF-8" standalone="no"?>
<!DOCTYPE svg PUBLIC "-//W3C//DTD SVG 1.1//EN" "http://www.w3.org/Graphics/SVG/1.1/DTD/svg11.dtd">
<svg width="100%" height="100%" viewBox="0 0 4101 647" version="1.1" xmlns="http://www.w3.org/2000/svg" xmlns:xlink="http://www.w3.org/1999/xlink" xml:space="preserve" xmlns:serif="http://www.serif.com/" style="fill-rule:evenodd;clip-rule:evenodd;stroke-linejoin:round;stroke-miterlimit:2;">
    <g transform="matrix(1,0,0,1,-2743.56,-3704.42)">
        <g transform="matrix(4.16667,0,0,4.16667,0,0)">
            <g transform="matrix(1,0,0,1,686.411,945.803)">
                <path d="M0,41.671L0,90.101C0,95.643 -2.796,98.413 -8.386,98.413L-19.569,98.413C-25.161,98.413 -27.956,95.643 -27.956,90.101L-27.956,-48.43C-27.956,-53.972 -25.161,-56.742 -19.569,-56.742L-8.386,-56.742C-2.796,-56.742 0,-53.972 0,-48.43L0,0L117.533,-51.201C124.987,-54.895 130.578,-56.742 134.307,-56.742L142.695,-56.742C148.286,-56.742 151.082,-53.972 151.082,-48.43C151.082,-44.735 149.217,-42.003 145.491,-40.229L9.059,20.835L145.379,81.789C149.105,83.637 150.97,86.372 150.97,89.99C150.97,95.606 148.175,98.413 142.583,98.413L134.196,98.413C130.467,98.413 124.875,96.567 117.421,92.872L0,41.671Z" style="fill:rgb(218,39,39);fill-rule:nonzero;"/>
            </g>
        </g>
        <g transform="matrix(4.16667,0,0,4.16667,0,0)">
            <g transform="matrix(1,0,0,1,887.704,933.391)">
                <path d="M0,66.495C0,72.629 2.721,77.855 8.164,82.176C13.604,86.498 20.203,88.659 27.958,88.659L95.055,88.659C102.807,88.659 109.406,86.498 114.849,82.176C120.289,77.855 123.013,72.629 123.013,66.495L123.013,-0C123.013,-6.132 120.289,-11.36 114.849,-15.682C109.406,-20.004 102.807,-22.165 95.055,-22.165L27.958,-22.165C20.203,-22.165 13.604,-20.004 8.164,-15.682C2.721,-11.36 0,-6.132 0,-0L0,66.495ZM150.969,66.495C150.969,78.76 145.507,89.214 134.587,97.858C123.664,106.503 110.488,110.825 95.055,110.825L27.958,110.825C12.525,110.825 -0.654,106.503 -11.574,97.858C-22.497,89.214 -27.958,78.76 -27.958,66.495L-27.958,-0C-27.958,-12.264 -22.497,-22.719 -11.574,-31.363C-0.654,-40.008 12.525,-44.33 27.958,-44.33L95.055,-44.33C110.488,-44.33 123.664,-40.008 134.587,-31.363C145.507,-22.719 150.969,-12.264 150.969,-0L150.969,66.495Z" style="fill:rgb(218,39,39);fill-rule:nonzero;"/>
            </g>
        </g>
        <g transform="matrix(4.16667,0,0,4.16667,0,0)">
            <g transform="matrix(1,0,0,1,1184.05,977.721)">
                <path d="M0,-22.165C15.434,-22.165 28.609,-17.843 39.531,-9.199C50.452,-0.554 55.914,9.901 55.914,22.165C55.914,34.43 50.452,44.884 39.531,53.528C28.609,62.173 15.434,66.495 0,66.495L-114.625,66.495C-120.217,66.495 -123.013,63.725 -123.013,58.182L-123.013,52.643C-123.013,47.102 -120.217,44.329 -114.625,44.329L0,44.329C7.752,44.329 14.352,42.168 19.794,37.846C25.234,33.524 27.956,28.299 27.956,22.165C27.956,16.032 25.234,10.805 19.794,6.483C14.352,2.16 7.752,-0.001 0,-0.001L-67.097,-0.001C-82.529,-0.001 -95.709,-4.323 -106.629,-12.966C-117.552,-21.611 -123.013,-32.066 -123.013,-44.331C-123.013,-56.594 -117.552,-67.05 -106.629,-75.693C-95.709,-84.339 -82.529,-88.66 -67.097,-88.66L47.527,-88.66C53.118,-88.66 55.914,-85.89 55.914,-80.348L55.914,-74.807C55.914,-69.267 53.118,-66.495 47.527,-66.495L-67.097,-66.495C-74.852,-66.495 -81.45,-64.334 -86.891,-60.012C-92.334,-55.69 -95.055,-50.462 -95.055,-44.331C-95.055,-38.197 -92.334,-32.971 -86.891,-28.649C-81.45,-24.326 -74.852,-22.165 -67.097,-22.165L0,-22.165Z" style="fill:rgb(218,39,39);fill-rule:nonzero;"/>
            </g>
        </g>
        <g transform="matrix(4.16667,0,0,4.16667,0,0)">
            <g transform="matrix(1,0,0,1,1290.29,955.555)">
                <path d="M0,22.165L0,80.348C0,85.89 -2.796,88.66 -8.387,88.66L-19.57,88.66C-25.162,88.66 -27.958,85.89 -27.958,80.348L-27.958,-58.182C-27.958,-63.724 -25.162,-66.495 -19.57,-66.495L-8.387,-66.495C-2.796,-66.495 0,-63.724 0,-58.182L0,0.001L123.011,0.001L123.011,-58.182C123.011,-63.724 125.807,-66.495 131.399,-66.495L142.582,-66.495C148.173,-66.495 150.969,-63.724 150.969,-58.182L150.969,80.348C150.969,85.89 148.173,88.66 142.582,88.66L131.399,88.66C125.807,88.66 123.011,85.89 123.011,80.348L123.011,22.165L0,22.165Z" style="fill:rgb(218,39,39);fill-rule:nonzero;"/>
            </g>
        </g>
        <g transform="matrix(4.16667,0,0,4.16667,0,0)">
            <g transform="matrix(1,0,0,1,1589.32,944.474)">
                <path d="M0,44.329L-36.231,-23.275L-72.465,44.329L0,44.329ZM-84.319,66.495L-97.738,91.43C-101.467,96.972 -105.194,99.742 -108.921,99.742L-117.308,99.742C-122.899,99.742 -125.695,97.01 -125.695,91.541C-125.695,89.62 -124.763,86.813 -122.899,83.118L-50.211,-47.101C-48.348,-52.643 -45.552,-55.413 -41.823,-55.413L-30.64,-55.413C-26.914,-55.413 -24.118,-52.643 -22.253,-47.101L50.437,83.229C52.298,86.85 53.231,89.584 53.231,91.43C53.231,96.972 50.437,99.742 44.844,99.742L36.457,99.742C32.728,99.742 29.001,96.972 25.274,91.43L11.855,66.495L-84.319,66.495Z" style="fill:rgb(218,39,39);fill-rule:nonzero;"/>
            </g>
        </g>
    </g>
</svg>
