<?xml version="1.0" encoding="UTF-8" standalone="no"?><!DOCTYPE svg PUBLIC "-//W3C//DTD SVG 1.1//EN" "http://www.w3.org/Graphics/SVG/1.1/DTD/svg11.dtd"><svg width="100%" height="100%" viewBox="0 0 734 457" version="1.1" xmlns="http://www.w3.org/2000/svg" xmlns:xlink="http://www.w3.org/1999/xlink" xml:space="preserve" xmlns:serif="http://www.serif.com/" style="fill-rule:evenodd;clip-rule:evenodd;stroke-linejoin:round;stroke-miterlimit:2;"><path d="M250.627,182.151c-62.445,69.945 -115.278,176.722 -160.445,249.167c-12.944,20.778 -36.055,26.111 -48.444,25.333c-12.278,-0.778 -26.333,-6.5 -36.333,-21.333c-27.223,-40.222 51.555,-324.278 165.166,-323.889c33.556,0.111 59.111,29.444 80.056,70.722" style="fill:#f79220;fill-rule:nonzero;"/><path d="M480.682,192.373c-45.166,99.445 -66.833,255.167 -110.944,254.723c-45.056,-0.445 -69.111,-166.612 -119.111,-264.945c37.833,-42.278 79.167,-71.111 124.5,-70.722c39.444,0.333 73.833,34.444 105.555,80.944" style="fill:#283a8e;fill-rule:nonzero;"/><path d="M724.46,440.651c-13.278,20.167 -45.555,16.445 -68.944,5.945c-60.278,-23.223 -112.389,-162.667 -174.834,-254.223c21.056,-46.444 47.223,-80.611 83.167,-80.944c114.056,-1.111 197,274.055 160.611,329.222" style="fill:#298d43;fill-rule:nonzero;"/><path d="M182.717,44.101c0,20.461 16.589,37.045 37.045,37.045c20.461,-0 37.05,-16.584 37.05,-37.045c-0,-20.461 -16.589,-37.044 -37.05,-37.044c-20.456,-0 -37.045,16.583 -37.045,37.044" style="fill:#f79220;fill-rule:nonzero;"/><path d="M332.667,37.044c-0,20.462 16.589,37.045 37.044,37.045c20.461,-0 37.05,-16.583 37.05,-37.045c0,-20.461 -16.589,-37.044 -37.05,-37.044c-20.455,0 -37.044,16.583 -37.044,37.044" style="fill:#283a8e;fill-rule:nonzero;"/><path d="M485.262,44.101c-0,20.461 16.589,37.045 37.044,37.045c20.461,-0 37.05,-16.584 37.05,-37.045c0,-20.461 -16.589,-37.044 -37.05,-37.044c-20.455,-0 -37.044,16.583 -37.044,37.044" style="fill:#298d43;fill-rule:nonzero;"/></svg>